<svg width="21" height="20" viewBox="0 0 21 20" fill="none" xmlns="http://www.w3.org/2000/svg">
<path fill-rule="evenodd" clip-rule="evenodd" d="M17.8128 0.189168C17.9995 -0.0308634 18.34 -0.0608317 18.5816 0.109151C18.7964 0.260247 18.8463 0.521972 18.7236 0.732803L18.6695 0.809163L14.9462 5.09914V5.10915L13.4137 6.87465L12.4421 7.99917L7.31863 13.9041L6.81881 14.4892L2.60139 19.3491L2.19502 19.8092C2.08515 19.9292 1.93144 19.9992 1.76667 19.9992C1.64587 19.9992 1.52508 19.9591 1.4262 19.8892C1.21139 19.738 1.16152 19.4763 1.28421 19.2655L1.33832 19.1892L5.06156 14.8892C2.90888 13.8892 1.10772 12.2691 0.0533277 10.2091C-0.0125676 10.0692 -0.0125676 9.91915 0.0533277 9.78914C1.85455 6.26912 5.7535 3.99917 10.0039 3.99917C11.2145 3.99917 12.3903 4.20461 13.5006 4.55226L13.9138 4.68917L17.8128 0.189168ZM15.9237 5.58913C17.6481 6.59914 19.0649 8.03914 19.9545 9.78914C20.0204 9.91915 20.0204 10.0692 19.9545 10.2091C18.1533 13.7191 14.2543 15.9892 10.0039 15.9892C9.18489 15.9892 8.38204 15.8936 7.60221 15.7278L7.21425 15.6392L7.96109 14.7791C8.63103 14.9091 9.31197 14.9892 10.0039 14.9892C13.7381 14.9892 17.1868 13.0391 18.8452 9.99917C18.0764 8.58982 16.9249 7.4157 15.5425 6.55807L15.2428 6.37917L15.9237 5.58913ZM1.16262 9.99917C2.82106 6.94918 6.26967 4.99917 10.0039 4.99917C11.1132 4.99917 12.1785 5.18917 13.1999 5.50918L12.2664 6.58913L12.0398 6.47145C11.4271 6.17297 10.7459 5.99917 10.0039 5.99917C7.57664 5.99917 5.61071 7.78914 5.61071 9.99917C5.61071 11.0891 6.09397 12.0791 6.87378 12.7992L5.7535 14.0891L5.43067 13.9422C3.61863 13.0801 2.10652 11.7181 1.16262 9.99917ZM13.804 8.03914C14.1664 8.61916 14.3971 9.27913 14.3971 9.99917C14.3971 12.2091 12.4312 13.9992 10.0039 13.9992C9.66122 13.9992 9.33965 13.9544 9.0223 13.8801L8.78481 13.8192L9.54264 12.9591C9.69635 12.9791 9.85013 12.9992 10.0039 12.9992C11.8161 12.9992 13.2988 11.6491 13.2988 9.99917C13.2988 9.68715 13.2426 9.38795 13.1414 9.10666L13.0572 8.89913L13.804 8.03914ZM6.70901 9.99917C6.70901 8.34914 8.19169 6.99917 10.0039 6.99917C10.575 6.99917 11.1022 7.14913 11.5745 7.37917L7.56572 11.9992L7.42693 11.8505C6.98131 11.3413 6.70901 10.6991 6.70901 9.99917Z" fill="#257FA4"/>
</svg>
